<?xml version="1.0" encoding="UTF-8"?>
<svg xmlns="http://www.w3.org/2000/svg" xmlns:xlink="http://www.w3.org/1999/xlink" id="Capa_1" x="0px" y="0px" viewBox="0 0 841.89 308" style="enable-background:new 0 0 841.89 308;" xml:space="preserve">
  <style type="text/css">	.st0{fill:#646363;}	.st1{clip-path:url(#SVGID_00000127746268184100889920000016975131489247361969_);fill:#646363;}	.st2{clip-path:url(#SVGID_00000127746268184100889920000016975131489247361969_);fill:#FFD040;}</style>
  <polygon class="st0" points="586.63,236.18 584,236.18 580.74,225.44 580.81,228.6 580.81,236.18 578.18,236.18 578.18,220.87  582.05,220.87 585.31,231.63 588.59,220.87 592.46,220.87 592.46,236.18 589.83,236.18 589.83,228.6 589.9,225.44 "></polygon>
  <g>	<defs>		<rect id="SVGID_1_" width="841.89" height="308"></rect>	</defs>	<clipPath id="SVGID_00000164494507127448688470000007635964157601605566_">		<use xlink:href="#SVGID_1_" style="overflow:visible;"></use>	</clipPath>	<path style="clip-path:url(#SVGID_00000164494507127448688470000007635964157601605566_);fill:#646363;" d="M599.9,235.2  c-0.81-0.8-1.22-2.07-1.22-3.83v-10.5h2.63v10.41c0,1.91,0.9,2.87,2.71,2.87c1.79,0,2.69-0.96,2.69-2.87v-10.41h2.63v10.5  c0,1.75-0.41,3.03-1.22,3.83c-0.84,0.82-2.21,1.24-4.1,1.24C602.11,236.44,600.74,236.02,599.9,235.2"></path>	<polygon style="clip-path:url(#SVGID_00000164494507127448688470000007635964157601605566_);fill:#646363;" points="626.43,236.18   623.64,236.18 617.98,225.62 618.06,228.86 618.06,236.18 615.57,236.18 615.57,220.87 618.36,220.87 624.01,231.43 623.93,228.19   623.93,220.87 626.43,220.87  "></polygon>			<rect x="632.85" y="220.87" style="clip-path:url(#SVGID_00000164494507127448688470000007635964157601605566_);fill:#646363;" width="2.63" height="15.31"></rect>	<path style="clip-path:url(#SVGID_00000164494507127448688470000007635964157601605566_);fill:#646363;" d="M644.25,228.92  c0,1.79,0.21,3.1,0.63,3.91c0.45,0.88,1.2,1.32,2.26,1.32h0.18c1.65,0,2.47-1.04,2.47-3.12h2.65v0.2c0,3.48-1.76,5.22-5.28,5.22  c-1.92,0-3.34-0.59-4.24-1.77c-0.9-1.2-1.35-3.12-1.35-5.75v-0.78c0-2.63,0.45-4.55,1.35-5.75c0.9-1.18,2.32-1.77,4.24-1.77  c3.52,0,5.28,1.78,5.28,5.34v0.67h-2.65c0-2.47-0.83-3.71-2.47-3.71h-0.18c-1.92,0-2.89,1.74-2.89,5.22V228.92z"></path>			<rect x="658.49" y="220.87" style="clip-path:url(#SVGID_00000164494507127448688470000007635964157601605566_);fill:#646363;" width="2.63" height="15.31"></rect>	<path style="clip-path:url(#SVGID_00000164494507127448688470000007635964157601605566_);fill:#646363;" d="M670.17,236.18h-2.63  v-15.32h4.79c0.68,0,1.28,0.06,1.81,0.18c0.64,0.13,1.19,0.35,1.65,0.67c0.52,0.35,0.92,0.82,1.2,1.4  c0.31,0.64,0.47,1.43,0.47,2.35v0.39c0,0.93-0.16,1.72-0.47,2.38c-0.28,0.58-0.67,1.04-1.2,1.39c-0.46,0.31-1.01,0.54-1.65,0.67  c-0.52,0.12-1.13,0.18-1.81,0.18h-2.16V236.18z M672.43,228.17c0.65,0,1.18-0.14,1.57-0.43c0.52-0.41,0.79-1.06,0.79-1.96v-0.21  c0-0.9-0.26-1.56-0.79-1.96c-0.39-0.29-0.92-0.43-1.57-0.43h-2.26v5.01H672.43z"></path>	<path style="clip-path:url(#SVGID_00000164494507127448688470000007635964157601605566_);fill:#646363;" d="M689.57,220.79  l4.03,15.39h-2.83l-0.84-3.49h-4.32l-0.84,3.49h-2.85l4.03-15.39H689.57z M686.15,230.39h3.2l-1.59-6.6L686.15,230.39z"></path>	<polygon style="clip-path:url(#SVGID_00000164494507127448688470000007635964157601605566_);fill:#646363;" points="699.07,236.18   699.07,220.87 701.7,220.87 701.7,233.88 707.61,233.88 707.61,236.18  "></polygon>			<rect x="713.13" y="220.87" style="clip-path:url(#SVGID_00000164494507127448688470000007635964157601605566_);fill:#646363;" width="2.63" height="15.31"></rect>	<path style="clip-path:url(#SVGID_00000164494507127448688470000007635964157601605566_);fill:#646363;" d="M732.98,228.92  c0,2.6-0.51,4.48-1.53,5.61c-0.98,1.1-2.57,1.65-4.75,1.65h-4.52v-15.32h4.52c2.19,0,3.77,0.55,4.75,1.65  c1.02,1.14,1.53,3.01,1.53,5.61V228.92z M726.54,233.88c1.35,0,2.32-0.4,2.9-1.2c0.56-0.76,0.85-2.02,0.85-3.77v-0.79  c0-1.75-0.28-3.02-0.85-3.79c-0.59-0.78-1.56-1.18-2.9-1.18h-1.73v10.72H726.54z"></path>	<path style="clip-path:url(#SVGID_00000164494507127448688470000007635964157601605566_);fill:#646363;" d="M745.54,220.79  l4.03,15.39h-2.83l-0.84-3.49h-4.32l-0.84,3.49h-2.85l4.03-15.39H745.54z M742.13,230.39h3.2l-1.59-6.6L742.13,230.39z"></path>	<path style="clip-path:url(#SVGID_00000164494507127448688470000007635964157601605566_);fill:#646363;" d="M765.85,228.92  c0,2.6-0.51,4.48-1.53,5.61c-0.98,1.1-2.57,1.65-4.75,1.65h-4.52v-15.32h4.52c2.19,0,3.77,0.55,4.75,1.65  c1.02,1.14,1.53,3.01,1.53,5.61V228.92z M759.41,233.88c1.35,0,2.32-0.4,2.9-1.2c0.56-0.76,0.85-2.02,0.85-3.77v-0.79  c0-1.75-0.28-3.02-0.85-3.79c-0.59-0.78-1.56-1.18-2.9-1.18h-1.73v10.72H759.41z"></path>	<path style="clip-path:url(#SVGID_00000164494507127448688470000007635964157601605566_);fill:#646363;" d="M80.41,183.59H60.05  V65.1h37.06c5.26,0,9.92,0.45,13.98,1.37c4.96,1.01,9.21,2.73,12.76,5.16c4.05,2.74,7.14,6.33,9.27,10.79  c2.43,4.96,3.65,11.04,3.65,18.23v3.04c0,7.19-1.22,13.32-3.65,18.38c-2.13,4.45-5.22,8.05-9.27,10.78  c-3.55,2.43-7.8,4.15-12.76,5.16c-4.05,0.91-8.71,1.37-13.98,1.37H80.41V183.59z M97.88,121.61c5.06,0,9.11-1.11,12.15-3.34  c4.05-3.14,6.08-8.2,6.08-15.19v-1.67c0-6.99-2.03-12.05-6.08-15.19c-3.04-2.22-7.09-3.34-12.15-3.34H80.41v38.73H97.88z"></path>	<path style="clip-path:url(#SVGID_00000164494507127448688470000007635964157601605566_);fill:#646363;" d="M162.28,150.62  c0.71,13.06,6.73,19.59,18.08,19.59c5.06,0,9.16-1.31,12.3-3.95c2.73-2.33,4.1-5.17,4.1-8.51h18.68v0.6  c0,7.6-2.99,13.93-8.96,18.99c-6.48,5.47-15.24,8.2-26.28,8.2c-12.46,0-21.98-3.85-28.56-11.54c-6.08-7.09-9.12-16.66-9.12-28.71  v-3.95c0-12.05,3.04-21.62,9.12-28.71c6.48-7.7,15.74-11.55,27.8-11.55c11.85,0,20.96,3.85,27.34,11.55  c5.77,7.09,8.66,16.66,8.66,28.71v9.27H162.28z M162.28,136.04h33.27c-0.61-13.06-6.13-19.6-16.56-19.6  C168.66,116.44,163.09,122.97,162.28,136.04"></path>	<path style="clip-path:url(#SVGID_00000164494507127448688470000007635964157601605566_);fill:#646363;" d="M271.65,101.25v19.14  h-3.34c-4.76,0-8.91,0.96-12.46,2.89c-2.63,1.42-4.71,3.29-6.23,5.62v54.68h-19.75v-57.73l-1.37-22.78h17.47l1.67,9.72  c5.37-7.8,12.61-11.7,21.72-11.7L271.65,101.25z"></path>	<path style="clip-path:url(#SVGID_00000164494507127448688470000007635964157601605566_);fill:#646363;" d="M330.44,171.13  c-5.16,6.18-12.3,9.27-21.42,9.27c-10.33,0-18.08-3.49-23.24-10.48c-4.66-6.38-6.99-15.44-6.99-27.19v-3.95  c0-11.34,2.33-20.26,6.99-26.74c5.26-7.29,13.01-10.94,23.24-10.94c5.47,0,10.23,1.11,14.28,3.34c3.64,2.02,6.63,4.86,8.96,8.51  l1.67-9.87h17.47l-1.21,22.78v56.81c0,22.18-11.8,33.27-35.4,33.27c-12.15,0-21.11-2.89-26.89-8.66c-5.07-5.06-7.6-12-7.6-20.81  v-2.89H299c0,10.74,5.11,16.1,15.34,16.1c10.73,0,16.1-5.77,16.1-17.32V171.13z M330.44,127.53c-1.62-2.53-3.49-4.56-5.62-6.08  c-3.14-2.12-6.58-3.19-10.33-3.19c-10.63,0-15.95,6.84-15.95,20.51v3.95c0,13.67,5.32,20.51,15.95,20.51  c3.75,0,7.19-1.07,10.33-3.19c1.11-0.81,2.23-1.83,3.34-3.04c0.81-0.81,1.57-1.77,2.28-2.89V127.53z"></path>	<path style="clip-path:url(#SVGID_00000164494507127448688470000007635964157601605566_);fill:#646363;" d="M414.6,174.32  c-6.48,7.5-15.24,11.24-26.28,11.24c-8.1,0-14.28-2.33-18.53-6.99c-3.85-4.25-5.77-9.82-5.77-16.71v-1.52  c0-8.1,2.73-14.23,8.2-18.38c4.35-3.24,10.99-5.52,19.9-6.83l20.51-3.19v-0.3c0-10.12-4.46-15.19-13.37-15.19  c-5.07,0-8.66,1.32-10.79,3.95c-1.73,2.13-2.58,5.22-2.58,9.27h-18.84v-1.37c0-7.79,2.23-14.03,6.68-18.68  c5.57-5.67,14.23-8.51,25.98-8.51c11.95,0,20.51,2.73,25.67,8.2c4.66,4.86,6.99,12.3,6.99,22.33v29.16l1.21,22.79h-17.47  L414.6,174.32z M406.4,166.42c2.53-1.42,4.61-3.24,6.23-5.47v-17.01l-16.86,2.74c-8,1.32-12,5.17-12,11.54v1.22  c0,6.58,3.8,9.87,11.39,9.87C399.31,169.3,403.05,168.35,406.4,166.42"></path>	<path style="clip-path:url(#SVGID_00000164494507127448688470000007635964157601605566_);fill:#646363;" d="M598.56,89.1h-21.57  V67.68h21.57V89.1z M577.9,103.08h19.75v80.51H577.9V103.08z"></path>	<path style="clip-path:url(#SVGID_00000164494507127448688470000007635964157601605566_);fill:#646363;" d="M664.79,183.59v-51.95  c0-8.91-4.26-13.37-12.76-13.37c-4.15,0-7.8,1.06-10.94,3.19c-2.33,1.62-4.26,3.65-5.77,6.08v56.05h-19.75v-57.73l-1.37-22.78  h17.47l1.82,10.63c2.63-3.85,6.02-6.88,10.18-9.11c4.56-2.33,9.87-3.5,15.95-3.5c8.3,0,14.63,2.73,18.99,8.2  c3.85,4.86,5.77,11.24,5.77,19.14v55.14H664.79z"></path>	<path style="clip-path:url(#SVGID_00000164494507127448688470000007635964157601605566_);fill:#646363;" d="M706.56,174.32  c-5.87-6.99-8.81-16.51-8.81-28.56v-4.86c0-12.15,2.94-21.67,8.81-28.56c6.28-7.49,15.49-11.24,27.65-11.24  c12.15,0,21.37,3.75,27.65,11.24c5.87,6.89,8.81,16.41,8.81,28.56v4.86c0,12.05-2.94,21.57-8.81,28.56  c-6.28,7.5-15.49,11.24-27.65,11.24C722.05,185.56,712.84,181.81,706.56,174.32 M750.92,145.76v-4.86  c0-15.08-5.57-22.63-16.71-22.63c-11.14,0-16.71,7.55-16.71,22.63v4.86c0,14.99,5.57,22.48,16.71,22.48  C745.34,168.24,750.92,160.75,750.92,145.76"></path>			<rect x="447.97" y="217.45" style="clip-path:url(#SVGID_00000164494507127448688470000007635964157601605566_);fill:#FFD040;" width="115.14" height="18.97"></rect>	<path style="clip-path:url(#SVGID_00000164494507127448688470000007635964157601605566_);fill:#FFD040;" d="M528.95,100.07  c-8.57,0.07-17.12,3.38-23.37,9.25c-6.67-6.25-15.92-9.65-25.05-9.22c-2.58,0.12-5.14,0.55-7.62,1.26  c-2.49,0.71-4.91,1.7-7.18,2.94c-2.28,1.24-4.42,2.73-6.36,4.45c-1.86,1.65-3.5,3.51-4.96,5.52c-1.42,1.94-2.61,4.04-3.57,6.25  c-0.96,2.21-1.68,4.52-2.16,6.88c-0.48,2.36-0.72,4.77-0.71,7.18c0.01,2.41,0.27,4.81,0.78,7.16c0.52,2.35,1.29,4.64,2.32,6.82  c0.07,0.14,0.14,0.28,0.21,0.42c3.27,6.6,8.6,11.92,13.84,17.1c4.39,4.34,8.78,8.69,13.18,13.03c2.17,2.15,4.48,4.38,7.42,5.22  c3.08,0.88,6.61,0,8.91-2.24c2.3-2.24,3.28-5.74,2.48-8.85c-0.83-3.23-3.32-5.73-5.7-8.06c-5.35-5.23-10.71-10.45-16.06-15.68  c-2.79-2.72-5.65-5.54-7.22-9.11c-2.68-6.09-0.78-13.88,4.41-18.05c5.19-4.17,13.2-4.36,18.58-0.43c2.41,1.76,4.25,4.18,6.38,6.27  c2.14,2.08,4.8,3.91,7.79,3.98c3.12,0.07,5.96-1.79,8.22-3.94c2.26-2.15,4.2-4.67,6.75-6.47c5.45-3.83,13.47-3.48,18.57,0.81  c5.1,4.29,6.81,12.13,3.97,18.16c-1.52,3.24-4.12,5.82-6.67,8.33c-5.8,5.72-11.6,11.45-17.4,17.17c-1.69,1.67-3.43,3.4-4.36,5.59  c-1.36,3.19-0.72,7.14,1.58,9.73c2.3,2.59,6.15,3.69,9.48,2.71c2.85-0.84,5.1-2.98,7.22-5.05c4.19-4.07,8.37-8.14,12.56-12.21  c5.38-5.23,10.86-10.6,14.26-17.29c4.81-9.47,4.86-21.21,0.13-30.71c-4.73-9.5-14.12-16.54-24.58-18.42  C533.02,100.23,530.99,100.06,528.95,100.07"></path></g>
</svg>
