<?xml version="1.0" encoding="utf-8"?>
<!-- Generator: Adobe Illustrator 27.9.0, SVG Export Plug-In . SVG Version: 6.00 Build 0)  -->
<svg version="1.1" id="Capa_1" xmlns="http://www.w3.org/2000/svg" xmlns:xlink="http://www.w3.org/1999/xlink" x="0px" y="0px"
	 viewBox="0 0 434 160" style="enable-background:new 0 0 434 160;" xml:space="preserve">
<style type="text/css">
	.st0{fill:#575756;}
	.st1{fill:#FFAA00;}
</style>
<g>
	<g>
		<g>
			<polygon class="st0" points="164.8,139.9 159.2,139.9 159.2,159.8 171,159.8 171,155.6 164.8,155.6 			"/>
			<path class="st0" d="M213.2,141.2c-1.6-0.8-3.4-1.3-5.5-1.3h-7.9v19.9h7.9c2.1,0,3.9-0.4,5.5-1.3c1.6-0.9,2.8-2,3.6-3.5
				c0.9-1.5,1.3-3.2,1.3-5.1c0-1.9-0.4-3.7-1.3-5.2C216,143.2,214.8,142,213.2,141.2z M211.1,153.6c-0.9,0.9-2.2,1.3-3.8,1.3h-1.9
				v-10.2h1.9c1.6,0,2.9,0.4,3.8,1.3c0.9,0.9,1.4,2.2,1.4,3.8C212.5,151.5,212.1,152.7,211.1,153.6z"/>
			<path class="st0" d="M179,139.9l-7.3,19.9h5.8l1.1-3.3h7.1l1.1,3.3h5.9l-7.2-19.9H179z M180.1,152.4l2.1-6.4l2.1,6.4H180.1z"/>
			<polygon class="st0" points="124.5,154.3 120,139.9 114,139.9 120.9,159.8 128,159.8 134.9,139.9 129,139.9 			"/>
			<rect x="136.6" y="139.9" class="st0" width="5.5" height="19.9"/>
			<polygon class="st0" points="150.9,139.9 145.3,139.9 145.3,159.8 157.1,159.8 157.1,155.6 150.9,155.6 			"/>
			<path class="st0" d="M319.8,139.9l-7.3,19.9h5.8l1.1-3.3h7.1l1.1,3.3h5.9l-7.2-19.9H319.8z M320.9,152.4l2.1-6.4l2.1,6.4H320.9z"
				/>
			<rect x="353.9" y="139.9" class="st0" width="5.5" height="19.9"/>
			<path class="st0" d="M350.3,149.9c0.7-1,1.1-2.2,1.1-3.6c0-1.2-0.3-2.3-0.8-3.3c-0.6-1-1.4-1.7-2.5-2.3c-1.1-0.6-2.5-0.8-4.1-0.8
				h-8.7v19.9h5.5v-7.4h0.6l4,7.4h6.2l-4.5-7.8C348.5,151.6,349.6,150.9,350.3,149.9z M345.2,148.2c-0.4,0.4-0.9,0.5-1.7,0.5h-2.7
				v-4.2h2.7c0.7,0,1.3,0.2,1.7,0.6c0.4,0.4,0.6,0.9,0.6,1.5C345.8,147.3,345.6,147.8,345.2,148.2z"/>
			<path class="st0" d="M377.4,140.9c-1.6-0.9-3.3-1.3-5.2-1.3c-1.9,0-3.6,0.4-5.1,1.3c-1.6,0.9-2.8,2.1-3.7,3.6
				c-0.9,1.6-1.4,3.3-1.4,5.3c0,2,0.5,3.7,1.4,5.3c0.9,1.6,2.2,2.8,3.7,3.6c1.6,0.9,3.3,1.3,5.1,1.3c1.9,0,3.6-0.4,5.1-1.3
				c1.6-0.9,2.8-2.1,3.7-3.6c0.9-1.6,1.4-3.3,1.4-5.3c0-2-0.5-3.7-1.4-5.3C380.1,143,378.9,141.8,377.4,140.9z M375.6,153.5
				c-0.8,0.9-1.9,1.4-3.4,1.4c-1.4,0-2.6-0.5-3.4-1.4c-0.8-0.9-1.2-2.2-1.2-3.7c0-1.6,0.4-2.8,1.2-3.7c0.8-0.9,1.9-1.4,3.4-1.4
				c1.4,0,2.5,0.5,3.4,1.4s1.2,2.2,1.2,3.7C376.8,151.4,376.4,152.6,375.6,153.5z"/>
			<polygon class="st0" points="220.6,159.8 233.4,159.8 233.4,155.4 226.2,155.4 226.2,151.8 232.5,151.8 232.5,147.6 226.2,147.6 
				226.2,144.4 233.4,144.4 233.4,139.9 220.6,139.9 			"/>
			<polygon class="st0" points="241.7,139.9 236.1,139.9 236.1,159.8 247.9,159.8 247.9,155.6 241.7,155.6 			"/>
			<path class="st0" d="M270.5,149.9c0.7-1,1.1-2.2,1.1-3.6c0-1.2-0.3-2.3-0.8-3.3c-0.6-1-1.4-1.7-2.5-2.3c-1.1-0.6-2.5-0.8-4.1-0.8
				h-8.7v19.9h5.5v-7.4h0.6l4,7.4h6.2l-4.5-7.8C268.6,151.6,269.7,150.9,270.5,149.9z M265.4,148.2c-0.4,0.4-0.9,0.5-1.7,0.5H261
				v-4.2h2.7c0.7,0,1.3,0.2,1.7,0.6c0.4,0.4,0.6,0.9,0.6,1.5C266,147.3,265.8,147.8,265.4,148.2z"/>
			<path class="st0" d="M308.3,149.1c-0.8-0.4-1.9-0.9-3.1-1.3c-0.8-0.3-1.5-0.6-1.9-0.7c-0.4-0.2-0.8-0.4-1.1-0.7
				c-0.3-0.3-0.4-0.6-0.4-1c0-0.5,0.1-0.8,0.4-1c0.3-0.2,0.6-0.4,1-0.4c0.5,0,1,0.2,1.3,0.5c0.3,0.3,0.5,0.8,0.6,1.4h6
				c-0.1-2-0.8-3.5-2.2-4.6c-1.4-1.1-3.2-1.6-5.6-1.6c-1.4,0-2.7,0.2-3.8,0.7c-1.1,0.5-2,1.2-2.7,2.1c-0.6,0.9-1,2-1,3.3
				c0,1.3,0.3,2.3,0.9,3.1c0.6,0.8,1.3,1.4,2.1,1.8c0.8,0.4,1.9,0.8,3.2,1.3c1.2,0.4,2.1,0.8,2.7,1.1c0.5,0.3,0.8,0.8,0.8,1.4
				c0,0.5-0.2,0.8-0.5,1.1c-0.3,0.3-0.7,0.4-1.3,0.4c-0.6,0-1-0.2-1.4-0.5c-0.4-0.3-0.6-0.8-0.6-1.5h-5.9c0.1,2.1,0.9,3.6,2.4,4.7
				c1.5,1.1,3.4,1.7,5.7,1.7c1.5,0,2.9-0.3,4-0.8c1.1-0.5,2-1.3,2.6-2.2c0.6-0.9,0.9-2,0.9-3.2c0-1.2-0.3-2.1-0.9-2.9
				C309.8,150.1,309.1,149.5,308.3,149.1z"/>
			<path class="st0" d="M288.8,140.9c-1.6-0.9-3.3-1.3-5.2-1.3c-1.9,0-3.6,0.4-5.1,1.3c-1.6,0.9-2.8,2.1-3.7,3.6
				c-0.9,1.6-1.4,3.3-1.4,5.3c0,2,0.5,3.7,1.4,5.3c0.9,1.6,2.2,2.8,3.7,3.6c1.6,0.9,3.3,1.3,5.1,1.3c1.9,0,3.6-0.4,5.1-1.3
				c1.6-0.9,2.8-2.1,3.7-3.6c0.9-1.6,1.4-3.3,1.4-5.3c0-2-0.5-3.7-1.4-5.3C291.6,143,290.4,141.8,288.8,140.9z M287,153.5
				c-0.8,0.9-1.9,1.4-3.4,1.4c-1.4,0-2.6-0.5-3.4-1.4c-0.8-0.9-1.2-2.2-1.2-3.7c0-1.6,0.4-2.8,1.2-3.7c0.8-0.9,1.9-1.4,3.4-1.4
				c1.4,0,2.5,0.5,3.4,1.4s1.2,2.2,1.2,3.7C288.2,151.4,287.8,152.6,287,153.5z"/>
		</g>
		<g>
			<path class="st0" d="M122.5,85.6c2.7,1.5,5.8,2.3,9.3,2.3c2.9,0,5.5-0.5,7.7-1.6c2.3-1,4.1-2.4,5.6-4c1.5-1.6,2.6-3.4,3.4-5.2
				v-9.4h-18.2v7h9.8c-1.5,3.1-3.9,4.6-7.3,4.6c-2.9,0-5.1-0.8-6.6-2.4c-1.5-1.6-2.3-3.9-2.3-6.9c0-2.7,0.7-4.8,2.1-6.4
				c1.4-1.6,3.3-2.4,5.8-2.4c1.3,0,2.5,0.2,3.5,0.7c1,0.5,1.7,1.2,2.3,2.1h10.5c-0.7-3.7-2.5-6.6-5.4-8.7c-2.9-2.1-6.5-3.2-10.9-3.2
				c-3.5,0-6.6,0.8-9.3,2.3c-2.7,1.5-4.8,3.6-6.2,6.3c-1.5,2.7-2.2,5.8-2.2,9.2c0,3.5,0.7,6.6,2.2,9.3
				C117.7,82,119.8,84.1,122.5,85.6z"/>
			<path class="st0" d="M184.2,60.7c-1.6-2.7-3.8-4.9-6.5-6.4c-2.7-1.5-5.8-2.3-9.1-2.3c-3.3,0-6.3,0.8-9,2.3
				c-2.8,1.5-4.9,3.7-6.5,6.4c-1.6,2.7-2.4,5.8-2.4,9.3c0,3.4,0.8,6.5,2.4,9.3c1.6,2.7,3.8,4.9,6.5,6.4c2.8,1.5,5.8,2.3,9,2.3
				c3.3,0,6.3-0.8,9-2.3c2.8-1.5,4.9-3.7,6.5-6.4c1.6-2.7,2.4-5.8,2.4-9.3C186.6,66.5,185.8,63.4,184.2,60.7z M174.5,76.5
				c-1.4,1.6-3.4,2.4-5.9,2.4c-2.5,0-4.5-0.8-5.9-2.4c-1.4-1.6-2.1-3.8-2.1-6.5c0-2.8,0.7-5,2.1-6.6c1.4-1.6,3.4-2.4,5.9-2.4
				c2.5,0,4.4,0.8,5.9,2.4c1.4,1.6,2.2,3.8,2.2,6.6C176.7,72.7,176,74.8,174.5,76.5z"/>
			<path class="st0" d="M216.3,72.7c-1.2-1.6-2.8-2.6-4.9-3.1c1.8-0.5,3.2-1.4,4.3-2.8c1.1-1.4,1.6-3.1,1.6-5.1c0-2.9-1-5.1-3.1-6.7
				c-2-1.6-4.8-2.4-8.4-2.4H189v35h17.3c3.7,0,6.6-0.8,8.6-2.5c2.1-1.7,3.1-4,3.1-7C218.1,76,217.5,74.2,216.3,72.7z M198.7,60.3
				h4.9c2.5,0,3.7,1,3.7,3.1c0,2-1.2,3-3.7,3h-4.9V60.3z M204.4,79.7h-5.7v-6.4h5.6c1.2,0,2.1,0.3,2.8,0.8c0.6,0.6,1,1.4,1,2.4
				C208.1,78.7,206.9,79.7,204.4,79.7z"/>
			<rect x="220.9" y="52.5" class="st0" width="9.7" height="35"/>
			<polygon class="st0" points="257.1,79.8 244.4,79.8 244.4,73.5 255.6,73.5 255.6,66.1 244.4,66.1 244.4,60.4 257.1,60.4 
				257.1,52.5 234.7,52.5 234.7,87.6 257.1,87.6 			"/>
			<path class="st0" d="M281.2,73.9c2.5-0.8,4.4-2,5.7-3.9c1.3-1.8,2-3.9,2-6.3c0-2.1-0.5-4-1.5-5.7c-1-1.7-2.5-3-4.4-4
				c-2-1-4.3-1.5-7.2-1.5h-15.4v35h9.7V74.7h1l7,12.9h10.9L281.2,73.9z M278,67.1c-0.7,0.6-1.7,0.9-3,0.9h-4.8v-7.3h4.8
				c1.3,0,2.3,0.3,3,1c0.7,0.6,1,1.5,1,2.7C279,65.5,278.7,66.4,278,67.1z"/>
			<polygon class="st0" points="301.6,68 314.5,87.6 324.3,87.6 324.3,52.5 314.5,52.5 314.5,72.4 301.6,52.5 291.8,52.5 
				291.8,87.6 301.6,87.6 			"/>
			<path class="st0" d="M360.4,60.7c-1.6-2.7-3.8-4.9-6.5-6.4c-2.7-1.5-5.8-2.3-9.1-2.3c-3.3,0-6.3,0.8-9,2.3
				c-2.8,1.5-4.9,3.7-6.5,6.4c-1.6,2.7-2.4,5.8-2.4,9.3c0,3.4,0.8,6.5,2.4,9.3c1.6,2.7,3.8,4.9,6.5,6.4c2.8,1.5,5.8,2.3,9,2.3
				s6.3-0.8,9-2.3c2.8-1.5,4.9-3.7,6.5-6.4c1.6-2.7,2.4-5.8,2.4-9.3C362.8,66.5,362,63.4,360.4,60.7z M350.7,76.5
				c-1.4,1.6-3.4,2.4-5.9,2.4c-2.5,0-4.5-0.8-5.9-2.4c-1.4-1.6-2.1-3.8-2.1-6.5c0-2.8,0.7-5,2.1-6.6c1.4-1.6,3.4-2.4,5.9-2.4
				c2.5,0,4.4,0.8,5.9,2.4c1.4,1.6,2.2,3.8,2.2,6.6C352.9,72.7,352.1,74.8,350.7,76.5z"/>
		</g>
		<g>
			<path class="st0" d="M146.2,113.3c0-3.4-0.7-6.4-2.2-9.1c-1.5-2.7-3.6-4.7-6.4-6.2c-2.8-1.5-6-2.2-9.7-2.2H114v35h13.9
				c3.6,0,6.9-0.8,9.6-2.3c2.8-1.5,4.9-3.6,6.4-6.2C145.5,119.7,146.2,116.7,146.2,113.3z M133.9,119.9c-1.6,1.6-3.9,2.3-6.7,2.3
				h-3.4v-18h3.4c2.9,0,5.1,0.8,6.7,2.4c1.6,1.6,2.4,3.8,2.4,6.7C136.3,116.2,135.5,118.4,133.9,119.9z"/>
			<rect x="286" y="95.8" class="st0" width="9.7" height="35"/>
			<path class="st0" d="M203.5,130.9h10.1l1.9-5.7h12.4l1.9,5.7h10.3l-12.7-35h-11.2l-12.7,34.8v-7.2h-10.9V95.8h-9.7v35H203.5
				L203.5,130.9z M221.7,106.4l3.8,11.3H218L221.7,106.4z"/>
			<polygon class="st0" points="149.1,130.9 171.5,130.9 171.5,123.1 158.8,123.1 158.8,116.8 170,116.8 170,109.4 158.8,109.4 
				158.8,103.6 171.5,103.6 171.5,95.8 149.1,95.8 			"/>
			<path class="st0" d="M365.9,113.3c0-3.4-0.7-6.4-2.2-9.1c-1.5-2.7-3.6-4.7-6.4-6.2c-2.8-1.5-6-2.2-9.7-2.2h-13.9v35h13.9
				c3.6,0,6.9-0.8,9.6-2.3c2.8-1.5,4.9-3.6,6.4-6.2C365.1,119.7,365.9,116.7,365.9,113.3z M353.5,119.9c-1.6,1.6-3.9,2.3-6.7,2.3
				h-3.4v-18h3.4c2.9,0,5.1,0.8,6.7,2.4c1.6,1.6,2.4,3.8,2.4,6.7C356,116.2,355.2,118.4,353.5,119.9z"/>
			<path class="st0" d="M400.1,130.9l-12.7-35h-11.2l-12.8,35h10.2l1.9-5.7H388l1.9,5.7H400.1z M378,117.7l3.7-11.3l3.8,11.3H378z"
				/>
			<path class="st0" d="M431.8,104.2c-1.5-2.7-3.6-4.7-6.4-6.2c-2.8-1.5-6-2.2-9.7-2.2h-13.9v35h13.9c3.6,0,6.9-0.8,9.6-2.3
				c2.8-1.5,4.9-3.6,6.4-6.2c1.5-2.7,2.3-5.7,2.3-9C434,109.9,433.3,106.9,431.8,104.2z M421.7,119.9c-1.6,1.6-3.9,2.3-6.7,2.3h-3.4
				v-18h3.4c2.9,0,5.1,0.8,6.7,2.4c1.6,1.6,2.4,3.8,2.4,6.7C424.1,116.2,423.3,118.4,421.7,119.9z"/>
			<path class="st0" d="M272.4,118.1c-0.6,1.3-1.5,2.3-2.6,3c-1.1,0.7-2.4,1-3.9,1c-2.3,0-4.1-0.8-5.4-2.4c-1.3-1.6-2-3.8-2-6.5
				c0-2.7,0.7-4.8,2-6.4c1.3-1.6,3.1-2.4,5.4-2.4c1.5,0,2.7,0.3,3.9,1c1.1,0.7,2,1.7,2.6,3h10.5c-0.9-4-2.8-7.2-5.8-9.5
				c-3-2.3-6.7-3.5-11-3.5c-3.4,0-6.5,0.8-9.1,2.3c-2.7,1.5-4.7,3.6-6.1,6.3c-1.4,2.7-2.2,5.8-2.2,9.2c0,3.5,0.7,6.6,2.2,9.3
				c1.4,2.7,3.5,4.8,6.1,6.3c2.7,1.5,5.7,2.3,9.1,2.3c4.4,0,8.1-1.2,11-3.5c3-2.3,4.9-5.5,5.8-9.5H272.4z"/>
			<path class="st0" d="M327.8,124.4c1.4-2.3,2-5,2-8.2V95.8h-9.7v20.3c0,1.9-0.5,3.3-1.4,4.3c-0.9,1-2.3,1.6-4.1,1.6
				c-1.8,0-3.1-0.5-4-1.5c-0.9-1-1.3-2.5-1.3-4.4V95.8h-9.7v20.3c0,3.2,0.6,6,1.9,8.3c1.3,2.3,3,4,5.3,5.1c2.2,1.1,4.8,1.7,7.6,1.7
				c2.9,0,5.4-0.6,7.8-1.7S326.4,126.7,327.8,124.4z"/>
		</g>
	</g>
	<path class="st1" d="M0.5,0.7v70.2l7,19.2l10.8-29.7c4.7,1,9.1,2.6,13.2,4.8L20.7,95l16.2-9.3c2.9,3.7,5.2,7.8,7,12.2l-13.7,7.9
		l4.7,0.4l0,0l24,2.2c0,0.7,0.1,1.5,0.1,2.2c0,4-0.5,8-1.3,11.7l-31.1-2.9l22.1,22.1c-2.8,3.7-6.2,7.1-9.9,9.9l-25.3-25.3L10.6,160
		h71.9V0.7H0.5z M49.5,93.8c-4,0-7.3-3.3-7.3-7.3s3.3-7.3,7.3-7.3s7.3,3.3,7.3,7.3S53.5,93.8,49.5,93.8z"/>
</g>
</svg>
